<?xml version="1.0" encoding="utf-8"?>
<!-- Generator: Adobe Illustrator 25.0.0, SVG Export Plug-In . SVG Version: 6.00 Build 0)  -->
<svg version="1.1" id="Layer_1" xmlns="http://www.w3.org/2000/svg" xmlns:xlink="http://www.w3.org/1999/xlink" x="0px" y="0px"
	 viewBox="0 0 65.1 65.5" style="enable-background:new 0 0 65.1 65.5;" xml:space="preserve">
<style type="text/css">
	.st0{fill:#1D1D1B;stroke:#FFFFFF;stroke-miterlimit:10;}
	.st1{fill:none;stroke:#FFFFFF;stroke-width:3;stroke-linecap:round;stroke-linejoin:round;}
</style>
<path class="st0" d="M9.9,4.3L15,7.4l4.6-2.3C26.2,2,38.9,2,45.4,5.2L50,7.4l5.2-3.1c8.3-4.8,8.8-4.1,6.2,6.7
	c-1.5,5.7-1.4,6.4,0.6,12.6c3.7,11.6,1.1,21-8.2,30.1c-2.9,2.8-6.2,5.2-9.7,7.1c-10.5,5.8-22.1,3.3-32.7-7.1
	C2.1,44.7-0.6,35.3,3.1,23.7c2-6.3,2-7,0.6-12.7C1.1,0.2,1.6-0.4,9.9,4.3z"/>
<polyline class="st1" points="20.2,40.3 13.3,33.4 20.2,26.4 "/>
<polyline class="st1" points="45.5,26.4 52.5,33.4 45.5,40.3 "/>
<line class="st1" x1="27.1" y1="42.6" x2="39.9" y2="24.4"/>
</svg>
